<svg width="84" height="80" viewBox="0 0 84 80" fill="none" xmlns="http://www.w3.org/2000/svg">
<path d="M21.1319 76.0476C21.5263 77.0793 22.6825 77.5959 23.7142 77.2014C24.746 76.807 25.2625 75.6508 24.8681 74.6191L21.1319 76.0476ZM11.2222 25.4074L13.2154 25.2431L13.2154 25.2431L11.2222 25.4074ZM11.2963 16.7037L9.55863 15.7134L9.55863 15.7134L11.2963 16.7037ZM23.7778 22.5556L22.5363 24.1236L22.5363 24.1236L23.7778 22.5556ZM59.3148 56.1667L57.9891 57.6642L57.9892 57.6643L59.3148 56.1667ZM61.5185 58.5926L62.1325 60.496L62.1325 60.496L61.5185 58.5926ZM41.8148 57.4815L41.7534 59.4805L41.7534 59.4805L41.8148 57.4815ZM15.7037 57L15.7894 55.0019L15.7894 55.0019L15.7037 57ZM3.24073 55.2778L1.78434 56.6485L1.78434 56.6485L3.24073 55.2778ZM33.5926 20.8148L32.3447 19.2519L32.3447 19.2519L33.5926 20.8148ZM41.9259 16.2778L40.3472 17.5057L40.3472 17.5057L41.9259 16.2778ZM38.1111 34.4259L36.243 33.7117L36.243 33.7117L38.1111 34.4259ZM23.3433 76.1343C23.2333 77.2334 24.0352 78.2135 25.1343 78.3234C26.2334 78.4333 27.2135 77.6314 27.3234 76.5323L23.3433 76.1343ZM68.8917 76.025C69.2997 77.0515 70.4625 77.5528 71.489 77.1448C72.5155 76.7368 73.0168 75.574 72.6088 74.5475L68.8917 76.025ZM66.4388 61.0217L64.5401 61.65L64.5401 61.65L66.4388 61.0217ZM65.6215 58.1331L67.6044 57.8718L67.6044 57.8718L65.6215 58.1331ZM67.8451 59.6883L69.2078 58.2244L69.2078 58.2244L67.8451 59.6883ZM80.111 70.9649L81.3461 69.3918L81.3461 69.3918L80.111 70.9649ZM81.5173 72.07L80.9568 73.9899L80.9568 73.9899L81.5173 72.07ZM72.504 71.5936L72.7802 73.5744L72.7802 73.5744L72.504 71.5936ZM64.877 73.3837L65.3386 75.3297L64.877 73.3837ZM61.5086 72.7219L59.5851 73.2699L59.5851 73.2699L61.5086 72.7219ZM64.3112 66.1008L65.9771 67.2075L65.9771 67.2075L64.3112 66.1008ZM72.3187 56.8096L70.9455 55.3554L70.9455 55.3554L72.3187 56.8096ZM75.2834 54.6191L74.3574 56.3918L74.3574 56.3918L75.2834 54.6191ZM74.4165 60.8497L76.3341 61.4179L76.3341 61.4179L74.4165 60.8497ZM67.4609 76.7844C67.3015 77.8774 68.0583 78.8927 69.1513 79.0521C70.2443 79.2115 71.2596 78.4547 71.419 77.3617L67.4609 76.7844ZM55.2761 36.974C55.3327 38.0772 56.2729 38.9255 57.376 38.8689C58.4791 38.8123 59.3275 37.8721 59.2709 36.769L55.2761 36.974ZM56.7735 23.5658L54.7742 23.6193L54.7742 23.6193L56.7735 23.5658ZM56.8929 7.80115L58.8809 8.01993L58.8809 8.01993L56.8929 7.80115ZM58.266 3.02512L58.0917 5.01751L58.0917 5.01751L58.266 3.02512ZM60.154 4.55121L58.7091 5.934L58.7091 5.934L60.154 4.55121ZM64.8405 10.0735L66.3929 8.81246L66.3928 8.81245L64.8405 10.0735ZM73.8105 21.3419L72.231 22.5688L72.231 22.5688L73.8105 21.3419ZM80.2059 30.241L82.035 29.4322L82.035 29.4322L80.2059 30.241ZM78.7358 32.5507L78.5924 34.5456L78.5924 34.5456L78.7358 32.5507ZM64.6316 28.7299L64.0064 30.6296L64.0064 30.6297L64.6316 28.7299ZM49.0647 23.521L50.9516 24.184L50.9516 24.184L49.0647 23.521ZM50.4751 22.133L51.733 23.6879L51.733 23.6879L50.4751 22.133ZM55.7362 17.8942L57.0048 19.4404L57.0048 19.4404L55.7362 17.8942ZM69.8927 5.88701L71.1959 7.40411L71.1959 7.40411L69.8927 5.88701ZM73.1389 3.11841L71.8772 1.56658L71.8772 1.56658L73.1389 3.11841ZM74.2284 2.4617L72.3978 1.65623L72.3978 1.65623L74.2284 2.4617ZM71.3628 6.78998L73.0068 7.92892L73.0068 7.92892L71.3628 6.78998ZM66.8554 13.2152L68.5017 14.3509L68.5017 14.3509L66.8554 13.2152ZM52.917 35.9099C52.6455 36.9806 53.2934 38.0686 54.3641 38.34C55.4348 38.6115 56.5228 37.9636 56.7943 36.8929L52.917 35.9099ZM24.8681 74.6191C22.6104 68.7145 20.6031 62.6621 18.9026 56.5175L15.0475 57.5843C16.7836 63.8576 18.8313 70.0307 21.1319 76.0476L24.8681 74.6191ZM18.9026 56.5175C17.3519 50.9141 16.0567 45.2352 15.0595 39.523L11.1191 40.2109C12.1399 46.0583 13.4644 51.8636 15.0475 57.5843L18.9026 56.5175ZM15.0595 39.523C14.231 34.7773 13.6083 30.0094 13.2154 25.2431L9.22896 25.5717C9.63226 30.4649 10.271 35.3528 11.1191 40.2109L15.0595 39.523ZM13.2154 25.2431C13.1623 24.5987 13.0533 23.8358 12.9561 23.1186C12.8549 22.3711 12.7583 21.6187 12.7047 20.8824C12.5895 19.2988 12.7198 18.2451 13.0339 17.694L9.55863 15.7134C8.59846 17.3983 8.59652 19.541 8.71523 21.1726C8.77861 22.0438 8.8905 22.9037 8.99233 23.6555C9.09825 24.4374 9.18685 25.0608 9.22896 25.5717L13.2154 25.2431ZM13.0339 17.694C13.0378 17.6872 12.9746 17.7553 12.9068 17.7733C12.9035 17.7742 12.9437 17.7631 13.0446 17.7675C13.1461 17.772 13.2898 17.7914 13.4804 17.8394C14.307 18.048 15.4489 18.6425 16.7534 19.5162C19.3815 21.2765 21.6985 23.4603 22.5363 24.1236L25.0193 20.9875C24.6032 20.6582 21.7455 18.0455 18.9793 16.1928C17.5867 15.26 15.9765 14.3438 14.4588 13.9609C13.6904 13.7671 12.7839 13.6672 11.8798 13.9074C10.9016 14.1673 10.0878 14.785 9.55863 15.7134L13.0339 17.694ZM22.5363 24.1236C23.8661 25.1765 25.1718 26.2575 26.4583 27.3621L29.0641 24.3273C27.7413 23.1916 26.3947 22.0765 25.0193 20.9875L22.5363 24.1236ZM26.4583 27.3621C29.8879 30.3069 33.176 33.4152 36.4205 36.6046L39.2246 33.7521C35.946 30.5292 32.5876 27.3528 29.0641 24.3273L26.4583 27.3621ZM36.4205 36.6046C43.476 43.5402 50.4291 50.9718 57.9891 57.6642L60.6405 54.6691C53.1797 48.0646 46.4462 40.8509 39.2246 33.7521L36.4205 36.6046ZM57.9892 57.6643C57.9811 57.6571 58.5947 58.2064 59.1538 58.7601C59.4433 59.0468 59.6637 59.2813 59.7792 59.4237C59.8588 59.5219 59.7934 59.4607 59.7173 59.2968C59.6959 59.2508 59.5248 58.9003 59.5603 58.4033C59.5812 58.1099 59.6788 57.7198 59.9614 57.3535C60.2466 56.9838 60.6069 56.7852 60.9045 56.6892L62.1325 60.496C62.4533 60.3925 62.8312 60.1821 63.1285 59.7968C63.4232 59.4147 63.5275 59.0049 63.5501 58.6881C63.589 58.1443 63.4009 57.7322 63.3451 57.6119C63.2 57.2995 62.9954 57.0393 62.8869 56.9054C62.626 56.5835 62.2747 56.2212 61.9684 55.9179C61.3359 55.2915 60.6616 54.6878 60.6404 54.6691L57.9892 57.6643ZM60.9045 56.6892C58.8423 57.3544 55.6648 57.1981 51.9898 56.7296C48.5647 56.293 44.6377 55.5673 41.8762 55.4824L41.7534 59.4805C44.269 59.5578 47.6489 60.2086 51.4839 60.6975C55.0689 61.1545 59.1048 61.4727 62.1325 60.496L60.9045 56.6892ZM41.8762 55.4824C37.7621 55.3561 33.6502 55.3245 29.5683 55.2878L29.5323 59.2877C33.6268 59.3245 37.6916 59.3558 41.7534 59.4805L41.8762 55.4824ZM29.5683 55.2878C25.3741 55.2502 21.2088 55.2071 17.0494 55.0523L16.9007 59.0495C21.1239 59.2067 25.3424 59.25 29.5323 59.2877L29.5683 55.2878ZM17.0494 55.0523C16.6293 55.0366 16.2093 55.0199 15.7894 55.0019L15.6179 58.9982C16.0457 59.0165 16.4733 59.0336 16.9007 59.0495L17.0494 55.0523ZM15.7894 55.0019C15.0017 54.968 13.9196 55.0006 12.8474 55.0227C11.7303 55.0458 10.5315 55.0611 9.36351 55.0088C8.18602 54.956 7.11581 54.837 6.24744 54.618C5.34349 54.3901 4.88809 54.11 4.69712 53.907L1.78434 56.6485C2.73947 57.6633 4.06238 58.1922 5.26937 58.4966C6.51194 58.8099 7.8853 58.9466 9.18442 59.0048C10.493 59.0634 11.8039 59.0451 12.9299 59.0219C14.1008 58.9977 14.9953 58.9714 15.6179 58.9982L15.7894 55.0019ZM4.69712 53.907C5.00242 54.2314 4.70073 54.4116 4.96035 53.5968C5.19161 52.8711 5.73488 51.8411 6.63381 50.5251C8.41135 47.9229 11.2526 44.668 14.532 41.252L11.6465 38.4818C8.32786 41.9387 5.30032 45.3857 3.33085 48.2689C2.35628 49.6956 1.55648 51.1042 1.14919 52.3823C0.770252 53.5715 0.534517 55.3206 1.78434 56.6485L4.69712 53.907ZM14.532 41.252C19.3211 36.2635 24.9022 31.0776 29.093 27.3368L26.4293 24.3527C22.1988 28.1289 16.5343 33.3905 11.6465 38.4818L14.532 41.252ZM29.093 27.3368C31.8364 24.888 33.9512 23.0877 34.8404 22.3778L32.3447 19.2519C31.3672 20.0323 29.1864 21.8916 26.4293 24.3527L29.093 27.3368ZM34.8404 22.3778C35.411 21.9222 36.8247 20.5617 38.6298 19.2693C39.5018 18.645 40.2597 18.1971 40.7999 17.9967C41.0739 17.8951 41.143 17.9146 41.0648 17.9102C40.9187 17.9019 40.5878 17.815 40.3472 17.5057L43.5046 15.0499C42.9001 14.2727 42.0569 13.9598 41.2902 13.9165C40.5914 13.8771 39.9316 14.0525 39.4086 14.2465C38.3549 14.6374 37.2466 15.3401 36.3013 16.0169C35.3266 16.7148 34.3937 17.4817 33.6752 18.0951C33.3139 18.4034 33.0016 18.6776 32.7634 18.887C32.6423 18.9934 32.5457 19.0785 32.4677 19.1464C32.4292 19.18 32.399 19.206 32.3757 19.2258C32.3506 19.2471 32.3422 19.2539 32.3447 19.2519L34.8404 22.3778ZM40.3472 17.5057C40.6885 17.9445 40.9349 18.7742 40.8394 20.1987C40.7466 21.5823 40.3507 23.2242 39.7821 24.9591C39.2186 26.6786 38.5161 28.3994 37.8603 29.928C37.2297 31.398 36.5877 32.8101 36.243 33.7117L39.9792 35.1402C40.2871 34.3349 40.8398 33.1285 41.5363 31.505C42.2076 29.9401 42.9646 28.0923 43.5832 26.2049C44.1967 24.3329 44.7055 22.3295 44.8304 20.4662C44.9526 18.6437 44.7295 16.6248 43.5046 15.0499L40.3472 17.5057ZM36.243 33.7117C36.1476 33.9612 36.0519 34.2108 35.9559 34.4603L39.6892 35.8963C39.7861 35.6445 39.8828 35.3924 39.9792 35.1402L36.243 33.7117ZM35.9559 34.4603C33.155 41.7421 30.0778 49.1395 27.6469 56.6736L31.4537 57.9019C33.8395 50.5075 36.8357 43.3149 39.6892 35.8963L35.9559 34.4603ZM27.6469 56.6736C25.6228 62.9472 24.0169 69.3983 23.3433 76.1343L27.3234 76.5323C27.9598 70.1679 29.4838 64.0073 31.4537 57.9019L27.6469 56.6736ZM72.6088 74.5475C72.4066 74.0387 72.215 73.5227 72.0317 73L68.2569 74.3231C68.4562 74.8918 68.667 75.4596 68.8917 76.025L72.6088 74.5475ZM72.0317 73C71.8641 72.5218 71.7037 72.0383 71.5485 71.5497L67.7361 72.7602C67.9016 73.2815 68.0746 73.8029 68.2569 74.3231L72.0317 73ZM71.5485 71.5497C71.0616 70.016 70.6326 68.45 70.1987 66.8429C69.7682 65.2482 69.3308 63.6059 68.8396 61.9824L65.011 63.1407C65.4807 64.6932 65.9001 66.2675 66.337 67.8855C66.7705 69.4911 67.2197 71.1338 67.7361 72.7602L71.5485 71.5497ZM68.8396 61.9824C68.6794 61.4529 68.5127 60.9228 68.3376 60.3935L64.5401 61.65C64.7028 62.1419 64.8591 62.6389 65.011 63.1407L68.8396 61.9824ZM68.3376 60.3935C67.9843 59.3258 67.7 58.5973 67.6044 57.8718L63.6387 58.3944C63.7987 59.609 64.2829 60.8728 64.5401 61.65L68.3376 60.3935ZM67.6044 57.8718C67.6289 58.0577 67.6933 58.7841 67.104 59.4225C66.4893 60.0884 65.7224 60.0637 65.4911 60.0402C65.2245 60.013 65.0427 59.9345 65.0062 59.9189C64.9458 59.893 64.9147 59.8741 64.922 59.8784C64.9807 59.9124 65.1515 60.0319 65.4223 60.2481C65.6681 60.4443 65.9262 60.6635 66.1335 60.8437C66.236 60.9328 66.3234 61.01 66.3873 61.0669C66.4571 61.1291 66.4875 61.157 66.4823 61.1522L69.2078 58.2244C69.1278 58.1499 68.5166 57.6001 67.9181 57.1222C67.6373 56.898 67.2671 56.6147 66.931 56.4194C66.8449 56.3695 66.4267 56.1148 65.8963 56.0608C65.6113 56.0317 64.8042 56.0167 64.1647 56.7094C63.5506 57.3747 63.6058 58.1451 63.6387 58.3944L67.6044 57.8718ZM66.4823 61.1522C66.7648 61.4151 67.0463 61.6796 67.3272 61.9453L70.0764 59.0399C69.7887 58.7677 69.4992 58.4957 69.2078 58.2244L66.4823 61.1522ZM67.3272 61.9453C68.8129 63.3512 70.2416 64.7554 71.7369 66.1933L74.5094 63.31C73.0604 61.9167 71.5724 60.4555 70.0764 59.0399L67.3272 61.9453ZM71.7369 66.1933C73.9904 68.3602 76.3239 70.5343 78.876 72.538L81.3461 69.3918C78.9578 67.5166 76.7417 65.4566 74.5094 63.31L71.7369 66.1933ZM78.876 72.538C78.9747 72.6155 79.185 72.7604 79.3092 72.8469C79.4796 72.9657 79.6744 73.1018 79.8494 73.2282C79.9367 73.2912 80.0127 73.3473 80.074 73.394C80.141 73.4451 80.1677 73.4678 80.1676 73.4677C80.1656 73.466 80.1581 73.4594 80.1466 73.4485C80.1359 73.4384 80.1151 73.4183 80.0884 73.3899C80.0644 73.3643 80.0175 73.3127 79.9634 73.2403C79.921 73.1835 79.8078 73.0274 79.7166 72.7973C79.6466 72.6205 79.4221 71.9852 79.7538 71.2498C80.1316 70.4122 80.8805 70.1713 81.2028 70.1115C81.5201 70.0526 81.7704 70.088 81.8502 70.1002C81.9588 70.1168 82.04 70.1392 82.0778 70.1502L80.9568 73.9899C81.0191 74.0081 81.1208 74.0352 81.2463 74.0544C81.3429 74.0691 81.6062 74.105 81.933 74.0443C82.2648 73.9827 83.0196 73.7379 83.4001 72.8945C83.7344 72.1533 83.5092 71.5102 83.4354 71.3238C83.278 70.9267 83.0233 70.672 83.0051 70.6525C82.9265 70.5688 82.8516 70.5011 82.803 70.4586C82.622 70.3 82.3766 70.1193 82.1916 69.9856C81.9857 69.8369 81.7652 69.683 81.5958 69.565C81.3802 69.4147 81.3263 69.3762 81.3461 69.3918L78.876 72.538ZM82.0778 70.1502C78.7632 69.1824 75.479 69.1594 72.2277 69.6127L72.7802 73.5744C75.6452 73.1749 78.3315 73.2234 80.9568 73.9899L82.0778 70.1502ZM72.2277 69.6127C71.5423 69.7083 70.8713 69.8326 70.2159 69.9728L71.0529 73.8843C71.6357 73.7596 72.2098 73.6539 72.7802 73.5744L72.2277 69.6127ZM70.2159 69.9728C69.8647 70.048 69.5172 70.1279 69.1737 70.2107L70.1109 74.0993C70.4272 74.0231 70.7409 73.951 71.0529 73.8843L70.2159 69.9728ZM69.1737 70.2107C68.3479 70.4097 67.5299 70.6292 66.7427 70.8396C65.9469 71.0522 65.1804 71.2562 64.4154 71.4377L65.3386 75.3297C66.1666 75.1333 66.9855 74.9151 67.7755 74.7039C68.5741 74.4905 69.3422 74.2846 70.1109 74.0993L69.1737 70.2107ZM64.4154 71.4377C64.07 71.5196 63.8577 71.5796 63.5611 71.6406C63.2881 71.6967 63.1003 71.7171 62.9794 71.7158C62.8514 71.7143 62.9382 71.6895 63.1013 71.7879C63.1907 71.8419 63.2758 71.9174 63.3422 72.0072C63.4067 72.0944 63.4284 72.161 63.4321 72.1739L59.5851 73.2699C59.8188 74.09 60.309 74.7747 61.0344 75.2125C61.7037 75.6164 62.4066 75.7095 62.9341 75.7155C63.9067 75.7265 64.9791 75.415 65.3386 75.3297L64.4154 71.4377ZM63.4321 72.1739C63.4161 72.1177 63.3878 71.9272 63.4912 71.5309C63.5928 71.1418 63.7897 70.6757 64.0732 70.1484C64.6635 69.0502 65.3896 68.0919 65.9771 67.2075L62.6453 64.9942C62.2277 65.6228 61.2572 66.9388 60.5499 68.2546C60.1845 68.9343 59.8324 69.7103 59.6209 70.5206C59.4113 71.3236 59.3059 72.2897 59.5851 73.2699L63.4321 72.1739ZM65.9771 67.2075C66.7521 66.0409 67.5884 64.915 68.4764 63.8241L65.3742 61.299C64.4119 62.4812 63.4978 63.7109 62.6453 64.9942L65.9771 67.2075ZM68.4764 63.8241C69.0272 63.1474 69.5978 62.4842 70.1859 61.8333L67.2177 59.1519C66.5867 59.8504 65.9711 60.5656 65.3742 61.299L68.4764 63.8241ZM70.1859 61.8333C71.2983 60.6019 72.4723 59.4153 73.6918 58.2637L70.9455 55.3554C69.6609 56.5685 68.4112 57.8308 67.2177 59.1519L70.1859 61.8333ZM73.6918 58.2637C73.7783 58.182 73.8864 58.0677 73.9535 57.997C74.0413 57.9046 74.1382 57.802 74.2505 57.6855C74.4754 57.4521 74.7352 57.191 74.9938 56.9574C75.2698 56.7081 75.4681 56.5604 75.5731 56.4996C75.6276 56.4679 75.5694 56.5118 75.4215 56.5461C75.2776 56.5795 74.8471 56.6476 74.3574 56.3918L76.2094 52.8464C75.5467 52.5002 74.903 52.5602 74.5175 52.6496C74.128 52.74 73.7997 52.9041 73.5671 53.0389C73.0979 53.3109 72.6542 53.6805 72.3128 53.9889C71.954 54.3129 71.621 54.6496 71.3703 54.9098C71.2447 55.0401 71.133 55.1583 71.053 55.2425C70.9524 55.3485 70.9335 55.3667 70.9455 55.3554L73.6918 58.2637ZM74.3574 56.3918C73.9222 56.1645 73.7631 55.8111 73.7228 55.692C73.6891 55.5923 73.7107 55.5902 73.7084 55.7577C73.7041 56.0875 73.6194 56.6066 73.4548 57.2599C73.0954 58.6864 72.6863 59.649 72.4989 60.2815L76.3341 61.4179C76.3315 61.4265 76.9891 59.6046 77.3336 58.2372C77.521 57.4935 77.6975 56.6133 77.7081 55.8104C77.7134 55.4114 77.6808 54.9096 77.5119 54.4103C77.3365 53.8918 76.9612 53.2391 76.2094 52.8464L74.3574 56.3918ZM72.4989 60.2815C72.1289 61.5303 71.6982 62.7911 71.239 64.0808L75.0073 65.4225C75.4757 64.107 75.9339 62.7683 76.3341 61.4179L72.4989 60.2815ZM71.239 64.0808C70.413 66.4007 69.4705 68.8743 68.7204 71.3482L72.5484 72.5089C73.2616 70.1566 74.1405 67.8569 75.0073 65.4225L71.239 64.0808ZM68.7204 71.3482C68.5393 71.9458 68.3674 72.5489 68.2089 73.1573L72.0797 74.1658C72.2231 73.6155 72.3802 73.0635 72.5484 72.5089L68.7204 71.3482ZM68.2089 73.1573C67.8999 74.3433 67.6405 75.5531 67.4609 76.7844L71.419 77.3617C71.5734 76.3032 71.7999 75.2398 72.0797 74.1658L68.2089 73.1573ZM59.2709 36.769C59.1562 34.535 59.0603 32.2993 58.9782 30.0614L54.9809 30.2081C55.0636 32.4623 55.1603 34.7177 55.2761 36.974L59.2709 36.769ZM58.9782 30.0614C58.9324 28.8132 58.8909 27.5643 58.8528 26.3147L54.8547 26.4366C54.893 27.6935 54.9348 28.9507 54.9809 30.2081L58.9782 30.0614ZM58.8528 26.3147C58.8243 25.381 58.7978 24.4468 58.7728 23.5123L54.7742 23.6193C54.7993 24.5582 54.826 25.4974 54.8547 26.4366L58.8528 26.3147ZM58.7728 23.5123C58.715 21.3531 58.6315 19.2847 58.5881 17.1521L54.5889 17.2335C54.6322 19.3623 54.7189 21.5514 54.7742 23.6193L58.7728 23.5123ZM58.5881 17.1521C58.5247 14.0426 58.5531 10.9984 58.8809 8.01993L54.9049 7.58238C54.549 10.8164 54.5243 14.0618 54.5889 17.2335L58.5881 17.1521ZM58.8809 8.01993C58.9255 7.61489 58.976 6.60424 59.1632 5.53826C59.2567 5.00646 59.3576 4.64031 59.4371 4.45676C59.48 4.35767 59.4595 4.44814 59.3205 4.58872C59.1505 4.76075 58.7206 5.07254 58.0917 5.01751L58.4403 1.03274C57.5404 0.953997 56.8661 1.38181 56.4756 1.77696C56.1161 2.14066 55.899 2.56135 55.7666 2.86694C55.4955 3.49277 55.3311 4.23387 55.2236 4.84613C55.1105 5.48952 55.0364 6.13656 54.9874 6.63908C54.9627 6.89276 54.9439 7.11524 54.9298 7.28586C54.9225 7.37435 54.9172 7.44012 54.9124 7.49755C54.9101 7.52508 54.9083 7.54623 54.9068 7.56241C54.9052 7.57982 54.9046 7.58494 54.9049 7.58238L58.8809 8.01993ZM58.0917 5.01751C57.9132 5.00189 57.7921 4.95668 57.7431 4.93611C57.6916 4.91445 57.6734 4.90031 57.691 4.91185C57.7319 4.93851 57.8185 5.00522 57.9494 5.12901C58.0741 5.2469 58.2028 5.38188 58.3328 5.52343C58.3982 5.59464 58.4569 5.65971 58.5195 5.72879C58.576 5.79115 58.6449 5.86698 58.7091 5.934L61.599 3.16843C61.5655 3.13343 61.0788 2.58297 60.6976 2.22252C60.4795 2.01633 60.1983 1.77179 59.878 1.56267C59.5905 1.37493 59.0837 1.08903 58.4403 1.03274L58.0917 5.01751ZM58.7091 5.934C60.3059 7.60258 61.7371 9.42517 63.2882 11.3346L66.3928 8.81245C64.9039 6.9796 63.3391 4.98673 61.599 3.16843L58.7091 5.934ZM63.2882 11.3345C63.3127 11.3648 63.3372 11.395 63.3617 11.4251L66.4668 8.90345C66.4421 8.87308 66.4175 8.84274 66.3929 8.81246L63.2882 11.3345ZM63.3618 11.4251C64.0899 12.3217 64.8161 13.2195 65.5402 14.1187L68.6558 11.6101C67.9279 10.7061 67.1981 9.80396 66.4668 8.90343L63.3618 11.4251ZM65.5402 14.1187C67.795 16.9189 70.0284 19.7332 72.231 22.5688L75.39 20.1151C73.1704 17.2576 70.9222 14.4248 68.6558 11.6101L65.5402 14.1187ZM72.231 22.5688C72.7946 23.2944 73.3949 24.0191 73.9797 24.7249C74.5714 25.4389 75.1494 26.1361 75.7028 26.844C76.8142 28.266 77.7542 29.642 78.3768 31.0499L82.035 29.4322C81.2144 27.5764 80.0386 25.8959 78.8542 24.3806C78.2596 23.62 77.6445 22.8784 77.0597 22.1727C76.468 21.4586 75.9084 20.7824 75.39 20.1151L72.231 22.5688ZM78.3768 31.0499C78.4561 31.2293 78.5142 31.3756 78.5553 31.4941C78.5971 31.6144 78.6144 31.6862 78.6206 31.7188C78.6273 31.7538 78.6152 31.713 78.622 31.6189C78.6293 31.518 78.6596 31.3448 78.7647 31.1488C78.8739 30.945 79.0248 30.79 79.1754 30.6868C79.3143 30.5916 79.4209 30.5618 79.4412 30.5566C79.461 30.5515 79.4303 30.5615 79.3263 30.5665C79.2248 30.5713 79.0791 30.5702 78.8791 30.5558L78.5924 34.5456C79.1932 34.5887 79.8403 34.5847 80.4411 34.4296C81.0792 34.2649 81.8413 33.8759 82.2902 33.0385C82.7032 32.268 82.6475 31.4834 82.5502 30.9717C82.4493 30.4408 82.2464 29.9101 82.035 29.4322L78.3768 31.0499ZM78.8791 30.5558C74.4003 30.234 70.0002 28.391 65.2567 26.8301L64.0064 30.6297C68.313 32.0468 73.4638 34.177 78.5924 34.5456L78.8791 30.5558ZM65.2567 26.8301C64.7008 26.6471 61.9695 25.848 59.06 24.9611L57.8937 28.7872C60.9237 29.7109 63.499 30.4627 64.0064 30.6296L65.2567 26.8301ZM59.06 24.9611C58.528 24.7989 57.9863 24.6327 57.4453 24.4652L56.2621 28.2862C56.8097 28.4557 57.3571 28.6237 57.8937 28.7872L59.06 24.9611ZM57.4453 24.4652C55.4704 23.8536 53.5265 23.2312 52.0997 22.7256C51.3778 22.4698 50.8354 22.2604 50.4979 22.1084C50.3146 22.0259 50.2736 21.9964 50.3073 22.0186C50.31 22.0204 50.4555 22.1119 50.6137 22.298C50.7039 22.4041 51.3156 23.1481 50.9516 24.184L47.1778 22.858C46.7995 23.9347 47.4286 24.727 47.5659 24.8885C47.7712 25.1301 47.9937 25.2842 48.101 25.3552C48.344 25.5158 48.6233 25.6511 48.8556 25.7557C49.3493 25.978 50.0189 26.232 50.7638 26.4959C52.2704 27.0298 54.2782 27.6719 56.2621 28.2862L57.4453 24.4652ZM50.9516 24.184C50.8877 24.3659 50.811 24.4438 50.8372 24.4128C50.8547 24.3921 50.9033 24.3412 50.9996 24.2587C51.093 24.1787 51.2006 24.0948 51.3279 23.9985C51.4311 23.9204 51.6044 23.7919 51.733 23.6879L49.2172 20.5781C49.1556 20.6279 49.0812 20.6824 48.9139 20.809C48.7708 20.9173 48.5852 21.06 48.3972 21.221C48.1059 21.4705 47.4653 22.0396 47.1778 22.8581L50.9516 24.184ZM51.733 23.6879C53.4505 22.2985 55.263 20.8695 57.0048 19.4404L54.4676 16.3481C52.7266 17.7765 51.0018 19.1344 49.2172 20.5781L51.733 23.6879ZM57.0048 19.4404C57.2909 19.2057 57.5765 18.9706 57.8618 18.7351L55.3152 15.6505C55.0329 15.8835 54.7504 16.116 54.4676 16.3481L57.0048 19.4404ZM57.8618 18.7351C60.6769 16.411 63.4548 14.0493 66.2158 11.6828L63.6127 8.64576C60.8584 11.0065 58.1021 13.3496 55.3152 15.6505L57.8618 18.7351ZM66.2158 11.6828C67.8778 10.2583 69.5393 8.82721 71.1959 7.40411L68.5894 4.36991C66.9268 5.79814 65.273 7.2227 63.6127 8.64576L66.2158 11.6828ZM71.1959 7.40411C72.307 6.44967 73.3256 5.54416 74.4005 4.67023L71.8772 1.56658C70.7466 2.4858 69.6338 3.47275 68.5894 4.36991L71.1959 7.40411ZM74.4005 4.67023C74.5971 4.51042 74.8443 4.30599 75.0285 4.17524C75.0692 4.14633 75.0837 4.13784 75.0766 4.14207C75.0724 4.1446 75.051 4.15747 75.0157 4.17518C74.9858 4.19021 74.9096 4.22729 74.8005 4.26311C74.7198 4.2896 74.46 4.37139 74.1103 4.35227C73.7117 4.33047 73.0066 4.14927 72.556 3.43998C72.1767 2.84299 72.2443 2.26648 72.2728 2.08744C72.3084 1.86441 72.3752 1.70758 72.3978 1.65623L76.059 3.26718C76.103 3.1673 76.1825 2.97106 76.223 2.71691C76.2565 2.50674 76.3213 1.90739 75.9322 1.29504C75.4719 0.570379 74.7501 0.381278 74.3287 0.358235C73.9562 0.337867 73.6673 0.425063 73.5525 0.462783C73.1501 0.594905 72.7993 0.852328 72.7136 0.913135C72.3927 1.1409 72.0096 1.45888 71.8772 1.56658L74.4005 4.67023ZM72.3978 1.65623C72.1473 2.22546 71.7596 2.83781 71.2667 3.52893C70.8637 4.0939 70.1541 5.02263 69.7188 5.65104L73.0068 7.92892C73.505 7.20983 73.8939 6.73402 74.5233 5.85153C75.0627 5.0952 75.641 4.21715 76.059 3.26718L72.3978 1.65623ZM69.7188 5.65104C69.0205 6.65896 68.312 7.66169 67.5973 8.67309C66.8843 9.68198 66.165 10.6996 65.4543 11.725L68.7417 14.0037C69.4404 12.9958 70.149 11.9931 70.8639 10.9816C71.577 9.9725 72.2962 8.95468 73.0068 7.92892L69.7188 5.65104ZM65.4543 11.7251C65.3725 11.8431 65.2907 11.9612 65.2091 12.0795L68.5017 14.3509C68.5815 14.2351 68.6616 14.1194 68.7417 14.0037L65.4543 11.7251ZM65.2091 12.0795C62.2229 16.4083 59.1373 21.0475 56.6856 25.9846L60.2681 27.7637C62.583 23.1022 65.5264 18.6638 68.5017 14.3509L65.2091 12.0795ZM56.6856 25.9846C56.1356 27.0921 55.6162 28.2171 55.1359 29.3596L58.8232 30.9099C59.268 29.852 59.7518 28.8035 60.2681 27.7637L56.6856 25.9846ZM55.1359 29.3596C54.2447 31.4793 53.4868 33.6622 52.917 35.9099L56.7943 36.8929C57.3082 34.8657 57.9979 32.8729 58.8232 30.9099L55.1359 29.3596Z" fill="#FFFA8E"/>
</svg>
